<svg width="24" height="24" viewBox="0 0 24 24" fill="none" xmlns="http://www.w3.org/2000/svg">
<g clip-path="url(#clip0_114_6)">
<path d="M23.3857 23.4945H18.5101C18.1652 23.4945 17.8865 23.2158 17.8865 22.8709V15.0189C17.8865 12.326 16.4975 12.326 16.0392 12.326C14.8062 12.326 14.2817 13.2992 14.1117 13.7197C14.0313 13.9087 13.9935 14.23 13.9935 14.6788V22.8756C13.9935 23.2205 13.7148 23.4993 13.37 23.4993H8.48964C8.32429 23.4993 8.16364 23.4331 8.04554 23.315C7.92744 23.197 7.8613 23.0362 7.86601 22.8709C7.86601 22.7386 7.93215 9.5717 7.86601 8.22524C7.85657 8.05516 7.91797 7.88981 8.0361 7.76697C8.15422 7.64413 8.31484 7.57326 8.48961 7.57326H13.37C13.7148 7.57326 13.9936 7.85198 13.9936 8.19686V8.56537C14.8156 7.83309 16.0014 7.22835 17.7684 7.22835C21.6754 7.22835 24.0093 9.9307 24.0093 14.4567V22.8709C24.0093 23.2158 23.7305 23.4945 23.3857 23.4945V23.4945ZM19.1337 22.2473L22.7668 22.2472V14.4566C22.7668 10.6535 20.9479 8.47553 17.7731 8.47553C15.6518 8.47553 14.6219 9.5338 13.9747 10.5023C13.8991 10.7574 13.6581 10.9464 13.3747 10.9464H13.3416C13.1148 10.9464 12.9069 10.8236 12.7983 10.6252C12.7133 10.4692 12.6944 10.2897 12.7511 10.1244V8.81573H9.12744C9.16051 11.4189 9.12744 19.8425 9.118 22.2425H12.7463V14.674C12.7463 14.0457 12.8125 13.5921 12.9542 13.2472C13.5022 11.8913 14.655 11.074 16.0345 11.074C17.9999 11.074 19.129 12.5103 19.129 15.0142V22.2472H19.1338L19.1337 22.2473ZM5.792 23.4944H0.911683C0.566801 23.4944 0.288082 23.2157 0.288082 22.8708V8.19681C0.288082 7.85193 0.566801 7.57319 0.911683 7.57319H5.792C6.13689 7.57319 6.41561 7.85193 6.41561 8.19679V22.8708C6.41561 23.2157 6.13689 23.4944 5.792 23.4944V23.4944ZM1.53533 22.2472H5.16838V8.82039H1.53536V22.2472L1.53533 22.2472ZM3.3542 6.81726L3.32111 6.81723C1.39827 6.81723 -0.000152588 5.48495 -0.000152588 3.65188C-0.000152588 1.82355 1.42189 0.491241 3.38725 0.491241C5.31953 0.491241 6.69908 1.78572 6.73689 3.6377C6.73689 5.48495 5.31484 6.81723 3.3542 6.81723V6.81726ZM3.38725 1.74323C2.10693 1.74323 1.2471 2.51331 1.2471 3.65664C1.2471 4.78103 2.0975 5.57001 3.32113 5.57001H3.35418C4.62979 5.57001 5.48961 4.79992 5.48961 3.65662C5.46599 2.49913 4.63923 1.74323 3.38725 1.74323V1.74323Z" fill="black"/>
</g>
<defs>
<clipPath id="clip0_114_6">
<rect width="24" height="24" fill="white"/>
</clipPath>
</defs>
</svg>
